# xmcd
#
# Track frame offsets: 
#        150
#        11634
#        23999
#        34599
#        45556
#        57453
#        69224
#        82514
#        93254
#        104574
#        118992
#        132633
#        143842
#        156022
#        167564
#        178034
#        192644
#        205137
#        219437
#        229975
#        240140
#        252689
#        263983
#        272983
#        281247
#        293252
#        305114
#        315682
#
# Disc length: 4354 seconds
#
# Revision: 0
# Processed by: cddbd v1.5.2PL0 Copyright (c) Steve Scherf et al.
# Submitted via: ExactAudioCopy v0.95b3
#
DISCID=9e11001c
DTITLE=Chuck Berry  - Johnny B. Goode His Complete '50's Chess Recordi
DTITLE=ngs Disc 4
DYEAR=1900
DGENRE=
TTITLE0=Little Queenie TAKE 8
TTITLE1=Little Queenie
TTITLE2=That's My Desire
TTITLE3=Do You Love Me ALTERNATE TAKE
TTITLE4=Do You Love Me
TTITLE5=Almost Grown TAKE 14
TTITLE6=Almost Grown TAKE 28
TTITLE7=Almost Grown
TTITLE8=Back In The U.S.A.
TTITLE9=Blue on Blue (Upchuck) ALTERNATE TAKE
TTITLE10=Blue on Blue
TTITLE11=Betty Jean ALTERNATE TAKE 14
TTITLE12=Betty Jean ALTERNATE TAKE 17
TTITLE13=Betty Jean
TTITLE14=County Line
TTITLE15=Childhood Sweetheart ALTERNATE TAKE
TTITLE16=Childhood Sweetheart
TTITLE17=One O'Clock Jump
TTITLE18=I Just Want to Make Love to You TAKE 3
TTITLE19=I Just Want to Make Love to You
TTITLE20=Broken Arrow take 21
TTITLE21=Broken Arrow
TTITLE22=Let It Rock ALTERNATE MIX
TTITLE23=Let It Rock
TTITLE24=Too Pooped to Pop TAKE 4A
TTITLE25=Too Pooped to Pop
TTITLE26=Say You'll Be Mine
TTITLE27=Let Me Sleep Woman
EXTD=
EXTT0=
EXTT1=
EXTT2=
EXTT3=
EXTT4=
EXTT5=
EXTT6=
EXTT7=
EXTT8=
EXTT9=
EXTT10=
EXTT11=
EXTT12=
EXTT13=
EXTT14=
EXTT15=
EXTT16=
EXTT17=
EXTT18=
EXTT19=
EXTT20=
EXTT21=
EXTT22=
EXTT23=
EXTT24=
EXTT25=
EXTT26=
EXTT27=
PLAYORDER=
